<svg xmlns="http://www.w3.org/2000/svg" viewBox="0 0 1189.54 325.66">
  <defs>
    <style>
      .cls-1 {
        fill: #dc45bc;
      }
    </style>
  </defs>
  <g id="ICONS">
    <g>
      <path class="cls-1" d="M123.94,29.05C188.42,5.25,246.33-3.28,253.3,10,260.17,23.08,215,52.47,151.88,76.1a82.57,82.57,0,0,0-3.12-8.16c50.53-18.87,87.22-39,81.71-49.52C224.86,7.74,180.24,17,128.38,36.15S37,77.07,42.64,87.74c4.42,8.42,34,3.75,71.71-8l-6.22,10.75c-46.4,13.09-82.88,16-88.32,5.66C12.85,82.89,59.47,52.84,123.94,29.05Z"/>
      <path class="cls-1" d="M321.25,173.69a111.91,111.91,0,0,0-4.73-10.83,120.34,120.34,0,0,0-12.83-20.15c.36-7.21.46-21.32.14-25.07A118.28,118.28,0,0,0,300,96.06a105.53,105.53,0,0,0-5.77-16.2l0-.08c-1.16-2.49-4-6-6.66-3.09-2.78,3-4.25,7-6.21,10.56A156.07,156.07,0,0,1,270.42,104c7,5.68,13.69,13.22,22.36,25.75-18.49-18.25-43.66-31.89-72.47-38.56a174.3,174.3,0,0,0-40.8-4.76h-.31a173.58,173.58,0,0,0-31.57,2.88c-2.71-16.52-10.06-27.21-11.82-29.51-2.22-2.91-3.42,2.73-4.11,4.27-.33.75-10.39,18.16-20.65,35.85l-16,32.12,3.64-25.77c-31.44,16.73-54.48,42.85-63,73.29-.2.64-.4,1.28-.58,1.93-.57,0-1.13-.07-1.71-.07-15.36,0-27.82,14.25-27.82,31.82s12.46,31.81,27.82,31.81a24.91,24.91,0,0,0,3.68-.28C46.17,267.58,65,286.65,91.58,300a182.71,182.71,0,0,0,43.49,15,235,235,0,0,0,49.69,5.16,212.24,212.24,0,0,0,57.29-7.39c17.43-4.89,32.72-12.07,45.42-21.35C307.3,277,320,258.26,325.35,235.77c8.29-5.67,13.81-16.81,13.81-29.92C339.16,190.7,331.77,178.17,321.25,173.69Zm-147.4,69.23c-23.37,0-42.31-15.81-42.31-35.31s18.94-35.31,42.31-35.31,42.31,15.81,42.31,35.31S197.22,242.92,173.85,242.92Zm116.48,31.65a43.47,43.47,0,0,1-26.16,11.28c-21.64,1.71-40.65-12.27-44.32-31.81,6.42,12.84,29.64,21,56.5,18.91a104.84,104.84,0,0,0,12.27-1.69A1.94,1.94,0,0,1,290.33,274.57Zm22.32-41.95c-10.68,0-19.34-12-19.34-26.77s8.66-26.76,19.34-26.76,19.34,12,19.34,26.76S323.33,232.62,312.65,232.62Z"/>
    </g>
    <g>
      <path class="cls-1" d="M388.07,4.24Q422.57,23,458.31,38.19q.24,18.45.47,36.9-18.6-6.86-36.93-14.54l.6,88.89q15.94,4.32,32,8.26.22,18.6.44,37.2-16.14-3-32.2-6.37.44,64,.86,128l-35.5-.21Z"/>
      <path class="cls-1" d="M476.37,45.64q17.31,6.91,34.87,13l4,224.09q16.38.81,32.77,1.52.32,16.42.64,32.84-34.16-.12-68.31-.29Z"/>
      <path class="cls-1" d="M560.66,272.9q-1.56-77.82-3.13-155.64c-.56-28.69,18.16-41.74,47.26-35s49,26.72,49.42,52.57L656.55,277c.41,25.79-18.44,43-47.12,43.2S561.23,301.52,560.66,272.9Zm48.17,16.54c7.39.21,12.22-5.4,12.06-13.7q-1.39-73.16-2.78-146.3c-.15-8.31-5.26-14.93-12.72-16.4s-12.32,3.34-12.15,11.87q1.5,74.9,3,149.77C596.4,283.21,601.44,289.24,608.83,289.44Z"/>
      <path class="cls-1" d="M666.13,96.35q18.47,2.66,37,4.47,8.91,80.42,17.5,159.64,7.13-78.93,14.59-157.11,18.6,1.09,37.23,1.37c-10.6,70.79-20.86,141.52-30.79,212.81l-41,0C689.43,245.08,677.89,171.57,666.13,96.35Z"/>
      <path class="cls-1" d="M800.41,104.66q24.84-.47,49.62-2.42c9.75,70.94,19.19,142.49,28.36,215.23l-36.09,0q-2.79-26.44-5.61-52.79-12.41.21-24.8.32-3.14,26.26-6.23,52.5H769.57C779.53,246.58,789.81,175.82,800.41,104.66Zm33.45,131.72q-4.41-40.59-8.93-81-5,40.78-9.88,81.37Q824.46,236.6,833.86,236.38Z"/>
      <path class="cls-1" d="M905.44,124.34q-14,1.81-28,3.21.19-14.64.37-29.29c30.89-3.53,61.13-11.07,92.21-21.07-.21,10.45-.26,22-.46,32.5-9.21,1.86-18.74,5.78-28,7.36q-1.83,100.15-3.64,200.3l-35.54.08C903.44,252.45,904.44,189.33,905.44,124.34Z"/>
      <path class="cls-1" d="M997.21,69.11c16.13-4.41,32.33-11.87,48.24-17.29,8.43,84.13,16.71,174,25.35,265.06l-36.07.16q-2.42-32.1-4.81-63.71-12.29,1-24.59,1.93-3.62,31.17-7.22,61.92l-36.08.11C973.66,237.11,985.43,154.58,997.21,69.11Zm30.35,150.3q-3.71-48.42-7.42-95.77-5.58,49.53-11.16,98Q1018.28,220.56,1027.56,219.41Z"/>
      <path class="cls-1" d="M1089.65,30.49Q1113,20.73,1135.9,9.41c27.41-14,45.17.95,45.25,40v60.42c0,22-6.84,41.89-18,50.73,11.13,3,18,19.12,18,41.13V316.27l-35.5.22q.35-54.18.68-108.38c.09-14.12-4.4-21.75-11.91-20.17-4,.83-8.05,1.64-12.09,2.44q-.63,63.12-1.27,126.26l-35.51.19Q1087.61,173.66,1089.65,30.49Zm45.11,116.75c7.47-2,12-11.87,12.13-26l.36-57.12c.07-11.38-4.59-17.1-11.69-14q-5.93,2.53-11.87,5l-1,95.36C1126.75,149.38,1130.75,148.32,1134.76,147.24Z"/>
    </g>
  </g>
</svg>
